<svg viewBox="0 0 200 60" xmlns="http://www.w3.org/2000/svg">
  <!-- Background rectangle with rounded corners -->
  <rect x="0" y="0" width="200" height="60" rx="8" fill="#0d6efd"/>
  
  <!-- Book icon -->
  <g transform="translate(15, 15) scale(0.03)">
    <path d="M448 336v-288c-32 0-144 32-224 32S32 48 0 48v288c0 0 143.9-32 224-32S448 336 448 336zM448 416c-36.2 0-131.6 35.2-224 35.2S36.2 416 0 416v32c0 17.7 14.3 32 32 32h384c17.7 0 32-14.3 32-32V416z" fill="white"/>
  </g>
  
  <!-- Text "LearnIspire" -->
  <text x="60" y="38" font-family="Arial, sans-serif" font-size="22" font-weight="bold" fill="white">LearnIspire</text>
</svg>
